<svg width="86" height="80" viewBox="0 0 86 80" fill="none" xmlns="http://www.w3.org/2000/svg">
<path d="M56.6542 45.4997C57.0579 46.9329 58.2997 47.9138 59.7006 47.977C60.6404 48.0191 61.5442 48.352 62.3637 48.8143L70.5389 53.4275L66.3389 60.7021L58.0394 52.6772L54.2146 53.7021C54.3739 51.0472 53.4826 48.4893 51.8151 46.5294C50.9489 47.4886 49.5044 47.7494 48.34 47.0771L49.7282 44.6726C49.5459 44.5505 35.1907 36.2523 35.1907 36.2523L36.5907 33.8274L15.2 21.4774L16.6 19.0526L51.9677 39.4721C54.2936 40.815 55.9488 42.9975 56.6542 45.4997Z" fill="black"/>
<path d="M69.7054 17.6863L72.1053 21.8431L50.7143 34.1932L52.1142 36.6179L51.2076 37.1413C51.1805 37.157 51.1404 37.1812 51.088 37.2115C50.9828 37.2723 50.8277 37.3616 50.6313 37.4752C50.2384 37.7023 49.677 38.0266 49.0029 38.4164C47.6543 39.1963 45.8542 40.2376 44.0485 41.2825C42.2429 42.3273 40.4314 43.3754 39.0605 44.1702C38.4718 44.5115 37.9646 44.8058 37.5739 45.033L38.9655 47.4433L38.0995 47.9433C36.8807 48.647 35.4389 48.5949 34.3034 47.9406C33.1787 49.5843 32.599 51.5809 32.7228 53.6423L32.8063 55.0272L28.1867 53.7894L20.2947 61.4209L19.3742 62.3109L14.029 53.0528L14.9084 52.5563L23.0839 47.9433L23.4311 47.7575C24.2572 47.3369 25.1921 47.0227 26.1936 46.9779L26.372 46.9628C27.2583 46.8491 28.0498 46.1951 28.3221 45.2291L28.3225 45.2278C29.0974 42.4795 30.9156 40.0817 33.471 38.6062L69.7054 17.6863Z" fill="black" stroke="white" stroke-width="2"/>
</svg>
